<?xml version="1.0" encoding="utf-8"?>
<!-- Generator: Adobe Illustrator 26.0.2, SVG Export Plug-In . SVG Version: 6.00 Build 0)  -->
<svg version="1.1" id="Layer_1" xmlns="http://www.w3.org/2000/svg" xmlns:xlink="http://www.w3.org/1999/xlink" x="0px" y="0px"
	 viewBox="0 0 300 300" style="enable-background:new 0 0 300 300;" xml:space="preserve">
<style type="text/css">
	.st0{fill:#FFFFFF;}
</style>
<g>
	<g>
		<path class="st0" d="M191.3,262.1H206c10.1,0,18.3-8.2,18.3-18.3V55.3c0-10.1-8.2-18.3-18.3-18.3h-14.6
			c-10.1,0-18.3,8.2-18.3,18.3v188.4C173,253.8,181.3,262.1,191.3,262.1z"/>
	</g>
	<g>
		<path class="st0" d="M93.2,262.1h14.6c10.1,0,18.3-8.2,18.3-18.3V55.3c0-10.1-8.2-18.3-18.3-18.3H93.2c-10.1,0-18.3,8.2-18.3,18.3
			v188.4C74.9,253.8,83.1,262.1,93.2,262.1z"/>
	</g>
</g>
</svg>
