<?xml version="1.0" encoding="UTF-8"?>
<!--Generator: Apple Native CoreSVG 175.5-->
<!DOCTYPE svg
PUBLIC "-//W3C//DTD SVG 1.1//EN"
       "http://www.w3.org/Graphics/SVG/1.1/DTD/svg11.dtd">
<svg version="1.1" xmlns="http://www.w3.org/2000/svg" xmlns:xlink="http://www.w3.org/1999/xlink" width="298.828" height="298.975">
 <g>
  <rect height="298.975" opacity="0" width="298.828" x="0" y="0"/>
  <path d="M149.414 298.828C231.152 298.828 298.828 231.006 298.828 149.414C298.828 67.6758 231.006 0 149.268 0C67.6758 0 0 67.6758 0 149.414C0 231.006 67.8223 298.828 149.414 298.828Z" fill="#ffffff" fill-opacity="0.85"/>
  <path d="M111.035 240.088C106.641 240.088 102.832 236.426 102.832 232.031C102.832 227.637 106.641 223.828 111.035 223.828L141.357 223.828L141.357 208.594C111.328 205.225 91.1133 182.373 91.1133 151.611L91.1133 132.129C91.1133 127.881 94.7754 124.219 99.0234 124.219C103.418 124.219 107.08 127.881 107.08 132.129L107.08 151.611C107.08 176.367 124.512 193.799 149.414 193.799C174.316 193.799 191.895 176.367 191.895 151.611L191.895 132.129C191.895 127.881 195.41 124.219 199.805 124.219C204.053 124.219 207.861 127.881 207.861 132.129L207.861 151.611C207.861 182.373 187.646 205.078 157.764 208.594L157.764 223.828L187.939 223.828C192.334 223.828 195.996 227.637 195.996 232.031C195.996 236.279 192.188 240.088 187.939 240.088ZM149.414 178.564C134.619 178.564 124.365 166.992 124.365 151.611L124.365 86.8652C124.365 71.6309 134.619 60.3516 149.414 60.3516C164.209 60.3516 174.463 71.6309 174.463 86.8652L174.463 151.611C174.463 166.992 164.209 178.564 149.414 178.564Z" fill="#1e1e1e"/>
 </g>
</svg>
