<?xml version="1.0" encoding="UTF-8"?>
<!--Generator: Apple Native CoreSVG 175.5-->
<!DOCTYPE svg
PUBLIC "-//W3C//DTD SVG 1.1//EN"
       "http://www.w3.org/Graphics/SVG/1.1/DTD/svg11.dtd">
<svg version="1.1" xmlns="http://www.w3.org/2000/svg" xmlns:xlink="http://www.w3.org/1999/xlink" width="298.828" height="298.975">
 <g>
  <rect height="298.975" opacity="0" width="298.828" x="0" y="0"/>
  <path d="M149.414 298.828C231.152 298.828 298.828 231.006 298.828 149.414C298.828 67.6758 231.006 0 149.268 0C67.6758 0 0 67.6758 0 149.414C0 231.006 67.8223 298.828 149.414 298.828Z" fill="#ffffff" fill-opacity="0.85"/>
  <path d="M109.57 204.346C100.195 204.346 94.4824 198.779 94.4824 189.551L94.4824 109.277C94.4824 99.9023 100.195 94.4824 109.57 94.4824L189.258 94.4824C198.779 94.4824 204.346 99.9023 204.346 109.277L204.346 189.551C204.346 198.779 198.779 204.346 189.258 204.346Z" fill="#1e1e1e"/>
 </g>
</svg>
